<svg width="903" height="160" viewBox="0 0 903 160" fill="none" xmlns="http://www.w3.org/2000/svg">
<path d="M180.899 139.335L183.827 134.234C198.203 142.656 217.533 150.405 242.938 150.405C281.377 150.405 300.024 136.231 300.024 112.722C300.024 95.8773 288.774 85.9137 271.03 78.5984L230.346 63.5337C217.753 58.6496 211.016 54.0043 211.016 44.4749C211.016 31.6243 225.855 24.5261 244.281 24.5261C266.759 24.5261 281.135 31.6243 286.991 35.1625L289.457 30.0614C278.207 24.0702 264.513 18.752 242.256 18.752C218.656 18.752 203.135 28.2814 203.135 44.019C203.135 62.1879 217.291 66.399 227.638 70.3931L267.64 85.4796C283.601 91.9049 291.68 102.107 291.68 114.502C291.68 135.992 267.86 144.631 239.988 144.631C213.46 144.631 188.517 129.111 188.517 129.111L186.491 127.787L194.351 110.725L197.279 112.939C197.279 112.939 216.388 127.114 238.645 127.114C261.563 127.114 271.69 122.013 271.69 114.48C271.69 108.272 266.979 105.841 257.535 102.064L217.973 88.0844C200.449 81.4855 183.607 68.8519 183.607 46.7107C183.607 22.7678 203.157 1.27777 242.278 1.27777C266.539 1.27777 287.233 8.59306 299.584 15.6913L302.049 17.0154L299.121 22.1166C286.308 14.8013 267.662 7.05186 242.256 7.05186C208.308 7.05186 189.661 24.5695 189.661 46.7324C189.661 64.9013 202.474 76.2106 219.999 82.6359L259.56 96.8107C269.225 100.805 277.767 104.343 277.767 114.545C277.767 126.745 263.148 132.931 238.667 132.931C219.118 132.931 202.937 123.619 196.64 119.647L193.954 125.638C199.348 128.525 219.118 138.944 240.032 138.944C268.586 138.944 285.89 130.305 285.89 114.567C285.89 104.604 280.056 96.8324 265.438 90.8629L225.656 75.7765C214.649 71.7824 197.345 66.03 197.345 44.0842C197.345 23.2453 218.237 12.8259 242.3 12.8259C268.828 12.8259 283.424 19.9242 297.14 27.6736L289.501 44.3012L286.573 41.87C286.573 41.87 271.977 30.5606 244.325 30.5606C227.924 30.5606 216.894 36.0959 216.894 44.5183C216.894 50.9436 220.945 53.6136 232.635 58.0418L273.319 73.3236C291.526 80.856 305.902 92.1654 305.902 112.765C305.902 140.03 284.107 156.418 242.96 156.418C216.19 156.397 196.2 148.191 180.899 139.335Z" fill="url(#paint0_linear_7_2)"/>
<path d="M474.429 78.1643C474.429 121.166 438.698 155.724 394.646 155.724C350.813 155.724 315.082 121.144 315.082 78.1643C315.082 35.4013 350.813 0.604858 394.646 0.604858C438.698 0.604858 474.429 35.4013 474.429 78.1643ZM320.916 78.1643C320.916 117.606 353.961 149.733 394.646 149.733C435.55 149.733 468.375 117.606 468.375 78.1426C468.375 38.6791 435.55 6.59601 394.646 6.59601C353.961 6.59601 320.916 38.7225 320.916 78.1643ZM460.031 78.1643C460.031 113.612 430.817 141.332 394.624 141.332C358.43 141.332 329.216 113.634 329.216 78.1643C329.216 42.6949 358.43 14.9967 394.624 14.9967C430.817 14.9967 460.031 42.7166 460.031 78.1643ZM394.646 20.9878C361.601 20.9878 335.094 46.0378 335.094 78.1643C335.094 110.291 361.623 135.341 394.668 135.341C427.933 135.341 454.219 110.291 454.219 78.1643C454.219 46.0378 427.911 20.9878 394.646 20.9878ZM430.376 42.2608C439.821 50.6831 445.875 63.0996 445.875 78.1643C445.875 93.229 439.799 105.645 430.376 114.068C420.954 122.49 408.119 127.135 394.646 127.135C381.172 127.135 368.58 122.49 359.135 114.068C349.47 105.645 343.636 93.229 343.636 78.1643C343.636 63.0996 349.492 50.6831 359.135 42.2608C368.58 33.8384 381.172 29.4102 394.646 29.4102C408.119 29.4102 420.932 33.8384 430.376 42.2608ZM394.646 35.1842C382.515 35.1842 371.265 39.3954 362.944 46.7107C354.622 54.026 349.47 64.6625 349.47 78.186C349.47 91.7095 354.644 102.346 362.944 109.661C371.243 116.977 382.493 121.188 394.646 121.188C406.798 121.188 418.246 116.977 426.568 109.661C434.889 102.346 440.063 91.7095 440.063 78.186C440.063 64.6625 434.889 54.026 426.568 46.7107C418.246 39.3954 406.776 35.1842 394.646 35.1842Z" fill="url(#paint1_linear_7_2)"/>
<path d="M503.181 155.724V12.5655H599.828V6.35724H495.321V155.724H489.487V0.604858H605.684V18.3395H509.037V149.971H516.896V95.009H585.892V88.8007H516.896V83.0484H585.892V76.8401H516.896V24.5478H605.684V30.5389H522.973V71.0878H591.748V100.783H522.973V155.745H503.181V155.724Z" fill="url(#paint2_linear_7_2)"/>
<path d="M739.845 0.604858V18.5566H680.954V149.971H688.814V24.7648H739.823V30.5172H694.648V155.724H674.856V18.5566H629.68V12.5655H733.989V6.35724H621.843V24.7431H667.239V155.724H661.162V30.5172H615.987V0.604858H739.845Z" fill="url(#paint3_linear_7_2)"/>
<path d="M903 78.1643C903 121.166 867.269 155.724 823.217 155.724C779.384 155.724 743.654 121.144 743.654 78.1643C743.654 35.4013 779.384 0.604858 823.217 0.604858C867.269 0.604858 903 35.4013 903 78.1643ZM749.488 78.1643C749.488 117.606 782.532 149.733 823.217 149.733C864.121 149.733 896.946 117.606 896.946 78.1643C896.946 38.7225 864.121 6.59601 823.217 6.59601C782.532 6.59601 749.488 38.7225 749.488 78.1643ZM888.624 78.1643C888.624 113.612 859.41 141.332 823.217 141.332C787.024 141.332 757.809 113.612 757.809 78.1643C757.809 42.7166 787.024 14.9967 823.217 14.9967C859.41 14.9967 888.624 42.7166 888.624 78.1643ZM823.217 20.9878C790.172 20.9878 763.665 46.0378 763.665 78.1643C763.665 110.291 790.194 135.341 823.217 135.341C856.482 135.341 882.768 110.291 882.768 78.1643C882.768 46.0378 856.482 20.9878 823.217 20.9878ZM858.947 42.2608C868.392 50.6831 874.446 63.0996 874.446 78.1643C874.446 93.229 868.37 105.645 858.947 114.068C849.525 122.49 836.69 127.135 823.217 127.135C809.743 127.135 797.151 122.49 787.706 114.068C778.041 105.645 772.207 93.229 772.207 78.1643C772.207 63.0996 778.041 50.6831 787.706 42.2608C797.151 33.8384 809.743 29.4102 823.217 29.4102C836.69 29.4102 849.503 33.8384 858.947 42.2608ZM823.217 35.1842C811.086 35.1842 799.836 39.3954 791.515 46.7107C783.193 54.026 778.019 64.6625 778.019 78.186C778.019 91.7095 783.193 102.346 791.515 109.661C799.836 116.977 811.064 121.188 823.217 121.188C835.369 121.188 846.817 116.977 855.139 109.661C863.461 102.346 868.634 91.7095 868.634 78.186C868.634 64.6625 863.461 54.026 855.139 46.7107C846.817 39.3954 835.347 35.1842 823.217 35.1842Z" fill="url(#paint4_linear_7_2)"/>
<path d="M167.008 41.4576V80.2699L122.867 25.3726H74.3896L33.1109 65.5959L57.1076 99.676H72.9586L97.4175 78.8589L113.731 97.31L83.5039 124.748H47.9933L0 64.1849L64.3066 1.71191H135.328L167.008 41.4576Z" fill="url(#paint5_linear_7_2)"/>
<path d="M52.3083 67.4844L70.0746 85.9571L94.5555 63.2298H106.07L133.897 96.8324L93.1025 138.011H42.7096L0 84.0469V124.748L30.227 162.605H104.132L167.008 100.154L118.068 38.6357H85.4192L52.3083 67.4844Z" fill="url(#paint6_linear_7_2)"/>
<defs>
<linearGradient id="paint0_linear_7_2" x1="243.401" y1="1.27777" x2="243.401" y2="156.418" gradientUnits="userSpaceOnUse">
<stop stop-color="#E832D0"/>
<stop offset="0.567708" stop-color="#746AFF"/>
<stop offset="0.807292" stop-color="#0085FF"/>
<stop offset="1" stop-color="#008DE9"/>
</linearGradient>
<linearGradient id="paint1_linear_7_2" x1="394.756" y1="0.604858" x2="394.756" y2="155.724" gradientUnits="userSpaceOnUse">
<stop stop-color="#E832D0"/>
<stop offset="0.567708" stop-color="#746AFF"/>
<stop offset="0.807292" stop-color="#0085FF"/>
<stop offset="1" stop-color="#008DE9"/>
</linearGradient>
<linearGradient id="paint2_linear_7_2" x1="547.586" y1="0.604858" x2="547.586" y2="155.745" gradientUnits="userSpaceOnUse">
<stop stop-color="#E832D0"/>
<stop offset="0.567708" stop-color="#746AFF"/>
<stop offset="0.807292" stop-color="#0085FF"/>
<stop offset="1" stop-color="#008DE9"/>
</linearGradient>
<linearGradient id="paint3_linear_7_2" x1="677.916" y1="0.604858" x2="677.916" y2="155.724" gradientUnits="userSpaceOnUse">
<stop stop-color="#E832D0"/>
<stop offset="0.567708" stop-color="#746AFF"/>
<stop offset="0.807292" stop-color="#0085FF"/>
<stop offset="1" stop-color="#008DE9"/>
</linearGradient>
<linearGradient id="paint4_linear_7_2" x1="823.327" y1="0.604858" x2="823.327" y2="155.724" gradientUnits="userSpaceOnUse">
<stop stop-color="#E832D0"/>
<stop offset="0.567708" stop-color="#746AFF"/>
<stop offset="0.807292" stop-color="#0085FF"/>
<stop offset="1" stop-color="#008DE9"/>
</linearGradient>
<linearGradient id="paint5_linear_7_2" x1="83.5039" y1="1.71191" x2="83.5039" y2="124.748" gradientUnits="userSpaceOnUse">
<stop stop-color="#E832D0"/>
<stop offset="0.567708" stop-color="#746AFF"/>
<stop offset="0.807292" stop-color="#0085FF"/>
<stop offset="1" stop-color="#008DE9"/>
</linearGradient>
<linearGradient id="paint6_linear_7_2" x1="83.5039" y1="38.6357" x2="83.5039" y2="162.605" gradientUnits="userSpaceOnUse">
<stop stop-color="#E832D0"/>
<stop offset="0.567708" stop-color="#746AFF"/>
<stop offset="0.807292" stop-color="#0085FF"/>
<stop offset="1" stop-color="#008DE9"/>
</linearGradient>
</defs>
</svg>
